<svg xmlns="http://www.w3.org/2000/svg" xmlns:xlink="http://www.w3.org/1999/xlink" width="600" zoomAndPan="magnify" viewBox="0 0 450 179.999997" height="240" preserveAspectRatio="xMidYMid meet" version="1.0"><defs><g/><clipPath id="434bf4baaf"><rect x="0" width="438" y="0" height="180"/></clipPath></defs><g transform="matrix(1, 0, 0, 1, 5, 0)"><g clip-path="url(#434bf4baaf)"><g fill="#ffffff" fill-opacity="1"><g transform="translate(0.196768, 135.495028)"><g><path d="M 45.515625 -73.828125 C 54.328125 -73.828125 61.46875 -71.15625 66.9375 -65.8125 C 72.40625 -60.476562 75.140625 -52.785156 75.140625 -42.734375 L 75.140625 0 L 63.234375 0 L 63.234375 -41.015625 C 63.234375 -48.242188 61.425781 -53.773438 57.8125 -57.609375 C 54.195312 -61.453125 49.257812 -63.375 43 -63.375 C 36.644531 -63.375 31.59375 -61.390625 27.84375 -57.421875 C 24.09375 -53.453125 22.21875 -47.671875 22.21875 -40.078125 L 22.21875 0 L 10.1875 0 L 10.1875 -72.5 L 22.21875 -72.5 L 22.21875 -62.171875 C 24.601562 -65.878906 27.84375 -68.75 31.9375 -70.78125 C 36.039062 -72.8125 40.566406 -73.828125 45.515625 -73.828125 Z M 45.515625 -73.828125 "/></g></g></g><g fill="#ffffff" fill-opacity="1"><g transform="translate(71.493625, 135.495028)"><g><path d="M 16.40625 -84.265625 C 14.113281 -84.265625 12.171875 -85.054688 10.578125 -86.640625 C 8.992188 -88.234375 8.203125 -90.175781 8.203125 -92.46875 C 8.203125 -94.769531 8.992188 -96.710938 10.578125 -98.296875 C 12.171875 -99.878906 14.113281 -100.671875 16.40625 -100.671875 C 18.613281 -100.671875 20.488281 -99.878906 22.03125 -98.296875 C 23.570312 -96.710938 24.34375 -94.769531 24.34375 -92.46875 C 24.34375 -90.175781 23.570312 -88.234375 22.03125 -86.640625 C 20.488281 -85.054688 18.613281 -84.265625 16.40625 -84.265625 Z M 22.21875 -72.5 L 22.21875 0 L 10.1875 0 L 10.1875 -72.5 Z M 22.21875 -72.5 "/></g></g></g><g fill="#ffffff" fill-opacity="1"><g transform="translate(90.671957, 135.495028)"><g><path d="M 5.6875 -36.375 C 5.6875 -43.875 7.1875 -50.421875 10.1875 -56.015625 C 13.1875 -61.617188 17.351562 -65.960938 22.6875 -69.046875 C 28.019531 -72.140625 34.128906 -73.6875 41.015625 -73.6875 C 49.921875 -73.6875 57.257812 -71.523438 63.03125 -67.203125 C 68.8125 -62.878906 72.628906 -56.882812 74.484375 -49.21875 L 61.515625 -49.21875 C 60.285156 -53.625 57.882812 -57.101562 54.3125 -59.65625 C 50.738281 -62.21875 46.304688 -63.5 41.015625 -63.5 C 34.128906 -63.5 28.570312 -61.140625 24.34375 -56.421875 C 20.113281 -51.703125 18 -45.019531 18 -36.375 C 18 -27.644531 20.113281 -20.898438 24.34375 -16.140625 C 28.570312 -11.378906 34.128906 -9 41.015625 -9 C 46.304688 -9 50.710938 -10.234375 54.234375 -12.703125 C 57.765625 -15.171875 60.191406 -18.695312 61.515625 -23.28125 L 74.484375 -23.28125 C 72.546875 -15.875 68.664062 -9.941406 62.84375 -5.484375 C 57.019531 -1.035156 49.742188 1.1875 41.015625 1.1875 C 34.128906 1.1875 28.019531 -0.351562 22.6875 -3.4375 C 17.351562 -6.519531 13.1875 -10.882812 10.1875 -16.53125 C 7.1875 -22.175781 5.6875 -28.789062 5.6875 -36.375 Z M 5.6875 -36.375 "/></g></g></g><g fill="#ffffff" fill-opacity="1"><g transform="translate(157.603571, 135.495028)"><g><path d="M 76.328125 -39.03125 C 76.328125 -36.738281 76.195312 -34.3125 75.9375 -31.75 L 18 -31.75 C 18.4375 -24.601562 20.878906 -19.023438 25.328125 -15.015625 C 29.785156 -11.003906 35.191406 -9 41.546875 -9 C 46.742188 -9 51.082031 -10.207031 54.5625 -12.625 C 58.050781 -15.050781 60.503906 -18.296875 61.921875 -22.359375 L 74.875 -22.359375 C 72.9375 -15.390625 69.054688 -9.722656 63.234375 -5.359375 C 57.410156 -0.992188 50.179688 1.1875 41.546875 1.1875 C 34.660156 1.1875 28.503906 -0.351562 23.078125 -3.4375 C 17.660156 -6.519531 13.40625 -10.90625 10.3125 -16.59375 C 7.226562 -22.289062 5.6875 -28.882812 5.6875 -36.375 C 5.6875 -43.875 7.1875 -50.445312 10.1875 -56.09375 C 13.1875 -61.738281 17.394531 -66.082031 22.8125 -69.125 C 28.238281 -72.164062 34.484375 -73.6875 41.546875 -73.6875 C 48.421875 -73.6875 54.503906 -72.1875 59.796875 -69.1875 C 65.085938 -66.1875 69.164062 -62.0625 72.03125 -56.8125 C 74.894531 -51.570312 76.328125 -45.644531 76.328125 -39.03125 Z M 63.90625 -41.546875 C 63.90625 -46.128906 62.890625 -50.070312 60.859375 -53.375 C 58.828125 -56.6875 56.066406 -59.203125 52.578125 -60.921875 C 49.097656 -62.640625 45.242188 -63.5 41.015625 -63.5 C 34.929688 -63.5 29.75 -61.554688 25.46875 -57.671875 C 21.1875 -53.796875 18.738281 -48.421875 18.125 -41.546875 Z M 63.90625 -41.546875 "/></g></g></g><g fill="#ffffff" fill-opacity="1"><g transform="translate(226.254821, 135.495028)"><g><path d="M 5.6875 -36.515625 C 5.6875 -43.921875 7.1875 -50.421875 10.1875 -56.015625 C 13.1875 -61.617188 17.304688 -65.960938 22.546875 -69.046875 C 27.796875 -72.140625 33.640625 -73.6875 40.078125 -73.6875 C 46.429688 -73.6875 51.945312 -72.316406 56.625 -69.578125 C 61.300781 -66.847656 64.785156 -63.410156 67.078125 -59.265625 L 67.078125 -72.5 L 79.25 -72.5 L 79.25 0 L 67.078125 0 L 67.078125 -13.5 C 64.691406 -9.257812 61.140625 -5.75 56.421875 -2.96875 C 51.703125 -0.195312 46.210938 1.1875 39.953125 1.1875 C 33.515625 1.1875 27.691406 -0.394531 22.484375 -3.5625 C 17.285156 -6.738281 13.1875 -11.191406 10.1875 -16.921875 C 7.1875 -22.660156 5.6875 -29.191406 5.6875 -36.515625 Z M 67.078125 -36.375 C 67.078125 -41.84375 65.972656 -46.601562 63.765625 -50.65625 C 61.554688 -54.71875 58.578125 -57.828125 54.828125 -59.984375 C 51.085938 -62.148438 46.96875 -63.234375 42.46875 -63.234375 C 37.96875 -63.234375 33.863281 -62.175781 30.15625 -60.0625 C 26.457031 -57.945312 23.503906 -54.859375 21.296875 -50.796875 C 19.097656 -46.742188 18 -41.984375 18 -36.515625 C 18 -30.953125 19.097656 -26.117188 21.296875 -22.015625 C 23.503906 -17.921875 26.457031 -14.789062 30.15625 -12.625 C 33.863281 -10.46875 37.96875 -9.390625 42.46875 -9.390625 C 46.96875 -9.390625 51.085938 -10.46875 54.828125 -12.625 C 58.578125 -14.789062 61.554688 -17.921875 63.765625 -22.015625 C 65.972656 -26.117188 67.078125 -30.90625 67.078125 -36.375 Z M 67.078125 -36.375 "/></g></g></g><g fill="#ffffff" fill-opacity="1"><g transform="translate(302.313768, 135.495028)"><g><path d="M 22.21875 -97.90625 L 22.21875 0 L 10.1875 0 L 10.1875 -97.90625 Z M 22.21875 -97.90625 "/></g></g></g><g fill="#ffffff" fill-opacity="1"><g transform="translate(321.492099, 135.495028)"><g><path d="M 24.875 -62.578125 L 24.875 -19.84375 C 24.875 -16.3125 25.625 -13.816406 27.125 -12.359375 C 28.625 -10.910156 31.222656 -10.1875 34.921875 -10.1875 L 43.796875 -10.1875 L 43.796875 0 L 32.9375 0 C 26.238281 0 21.210938 -1.539062 17.859375 -4.625 C 14.503906 -7.71875 12.828125 -12.789062 12.828125 -19.84375 L 12.828125 -62.578125 L 3.4375 -62.578125 L 3.4375 -72.5 L 12.828125 -72.5 L 12.828125 -90.75 L 24.875 -90.75 L 24.875 -72.5 L 43.796875 -72.5 L 43.796875 -62.578125 Z M 24.875 -62.578125 "/></g></g></g><g fill="#ffffff" fill-opacity="1"><g transform="translate(356.279544, 135.495028)"><g><path d="M 35.859375 1.1875 C 30.296875 1.1875 25.304688 0.238281 20.890625 -1.65625 C 16.484375 -3.550781 13 -6.195312 10.4375 -9.59375 C 7.882812 -12.988281 6.476562 -16.890625 6.21875 -21.296875 L 18.65625 -21.296875 C 19.007812 -17.679688 20.707031 -14.726562 23.75 -12.4375 C 26.789062 -10.144531 30.78125 -9 35.71875 -9 C 40.300781 -9 43.914062 -10.007812 46.5625 -12.03125 C 49.207031 -14.0625 50.53125 -16.625 50.53125 -19.71875 C 50.53125 -22.882812 49.117188 -25.238281 46.296875 -26.78125 C 43.484375 -28.332031 39.117188 -29.859375 33.203125 -31.359375 C 27.828125 -32.765625 23.441406 -34.195312 20.046875 -35.65625 C 16.648438 -37.113281 13.738281 -39.273438 11.3125 -42.140625 C 8.882812 -45.003906 7.671875 -48.773438 7.671875 -53.453125 C 7.671875 -57.148438 8.769531 -60.539062 10.96875 -63.625 C 13.175781 -66.71875 16.304688 -69.164062 20.359375 -70.96875 C 24.421875 -72.78125 29.054688 -73.6875 34.265625 -73.6875 C 42.285156 -73.6875 48.765625 -71.65625 53.703125 -67.59375 C 58.648438 -63.539062 61.300781 -57.988281 61.65625 -50.9375 L 49.609375 -50.9375 C 49.347656 -54.726562 47.828125 -57.769531 45.046875 -60.0625 C 42.265625 -62.351562 38.539062 -63.5 33.875 -63.5 C 29.550781 -63.5 26.109375 -62.570312 23.546875 -60.71875 C 20.992188 -58.875 19.71875 -56.453125 19.71875 -53.453125 C 19.71875 -51.066406 20.488281 -49.101562 22.03125 -47.5625 C 23.570312 -46.019531 25.507812 -44.785156 27.84375 -43.859375 C 30.1875 -42.929688 33.429688 -41.894531 37.578125 -40.75 C 42.773438 -39.332031 47.003906 -37.941406 50.265625 -36.578125 C 53.535156 -35.210938 56.335938 -33.160156 58.671875 -30.421875 C 61.003906 -27.691406 62.21875 -24.125 62.3125 -19.71875 C 62.3125 -15.75 61.207031 -12.175781 59 -9 C 56.800781 -5.820312 53.691406 -3.328125 49.671875 -1.515625 C 45.660156 0.285156 41.054688 1.1875 35.859375 1.1875 Z M 35.859375 1.1875 "/></g></g></g><g fill="#ffffff" fill-opacity="1"><g transform="translate(411.967319, 135.495028)"><g><path d="M 14.03125 0.796875 C 11.726562 0.796875 9.785156 0.00390625 8.203125 -1.578125 C 6.617188 -3.171875 5.828125 -5.113281 5.828125 -7.40625 C 5.828125 -9.695312 6.617188 -11.632812 8.203125 -13.21875 C 9.785156 -14.8125 11.726562 -15.609375 14.03125 -15.609375 C 16.226562 -15.609375 18.097656 -14.8125 19.640625 -13.21875 C 21.191406 -11.632812 21.96875 -9.695312 21.96875 -7.40625 C 21.96875 -5.113281 21.191406 -3.171875 19.640625 -1.578125 C 18.097656 0.00390625 16.226562 0.796875 14.03125 0.796875 Z M 14.03125 0.796875 "/></g></g></g></g></g></svg>